# xmcd
#
# Track frame offsets: 
#        150
#        19490
#        40889
#        63019
#        80795
#        99063
#        118965
#        139333
#        164180
#        182011
#        202217
#        223079
#        240350
#        258602
#        272183
#        287618
#        311848
#        329738
#
# Disc length: 4583 seconds
#
# Revision: 0
# Processed by: cddbd v1.5.1PL2 Copyright (c) Steve Scherf et al.
# Submitted via: ExactAudioCopy v0.95a5
#
DISCID=2311e512
DTITLE=Various Artist - MTV Forever - Egypt
DYEAR=2004
DGENRE=Folklore
TTITLE0=Tamer Hosney - Lama btkon baid
TTITLE1=Nancy - Ah we nos
TTITLE2=Hakim - Ah men halowto
TTITLE3=Amr diab - Roh albi
TTITLE4=Ewan - Zanbi eh
TTITLE5=Karol - Habib albi
TTITLE6=Ehab Tawfik - Leh el Khesam
TTITLE7=Khaled Selem - Ozalak
TTITLE8=Meriam - Enta El Haia
TTITLE9=Looi - Ah ya ein
TTITLE10=Sheren - Sabri alel
TTITLE11=El esili - Magnona
TTITLE12=Amr diab - Yedok elbab
TTITLE13=Esaf - Ashek baheb
TTITLE14=Merel la - Matsalonish
TTITLE15=Nancy - Gayen yekololi
TTITLE16=Tamer - Lesa bahebk
TTITLE17=Hakim - Mosh Hasaleh
EXTD=
EXTT0=
EXTT1=
EXTT2=
EXTT3=
EXTT4=
EXTT5=
EXTT6=
EXTT7=
EXTT8=
EXTT9=
EXTT10=
EXTT11=
EXTT12=
EXTT13=
EXTT14=
EXTT15=
EXTT16=
EXTT17=
PLAYORDER=
